<?xml version="1.0" encoding="UTF-8" standalone="no"?>
<svg xmlns:svg="http://www.w3.org/2000/svg" xmlns="http://www.w3.org/2000/svg" width="520" height="585" viewBox="0 0 320 360">
<title>Tesseract net (eight cubes).</title>
<g transform="translate(-5,-70)">
<path d="M 100,100
L 150,80
L 230,80
L 180,100
L 100,100 z
M 150,240
L 70,240
L 20,260
L 100,260 z
M 230,240
L 280,220
L 200,220
L 150,240 z" fill="#feaaef"/>
<path d="M 230,240
L 280,220
L 200,220
L 150,240 z
M 150,240
L 70,240
L 20,260
L 100,260 z" style="fill:none;stroke:#000000;stroke-width:2.25px;stroke-linejoin:round;stroke-opacity:1" />
<path d="M 180,100
L 180,420
L 100,420
L 100,100 z" fill="#a86fe4"/>
<path d="M 230,80
L 230 240
L 280 220
L 280 300
L 230 320
L 230,400
L 180,420
L 180,340
L 130,360
L 130,280
L 180,260
L 180,100 z" fill="#4080c0"/>
<path d="M 230,80
L 230 240
L 280 220
L 280 300
L 230 320
L 230,400
L 180,420
L 180,340
L 130,360
L 130,280
L 180,260
L 180,100 z" style="fill:none;stroke:#000000;stroke-width:2.25px;stroke-linejoin:round;stroke-opacity:1" />
<path d="M 260,260
L 260,340
L 180,340
L 180,260 z
M 20,260
L 20,340
L 100,340
L 100,260 z" fill="#a86fe4"/>
<path d="M 180,100
L 180,420
L 100,420
L 100,100 z
M 20,260
L 20,340
L 100,340
L 100,260 z" style="fill:none;stroke:#000000;stroke-width:2.25px;stroke-linejoin:round;stroke-opacity:1" />
<path d="M 100,260
L 50,280
L 130,280
L 180,260 z
M 180,260
L 260,260
L 310,240
L 230,240 z" fill="#feaaef"/>
<path d="M 310,240
L 310,320
L 260,340
L 260,260 z" fill="#4080c0"/>
<path d="M 50,280
L 50,360
L 130,360
L 130,280 z" fill="#a86fe4"/>
<path d="M 100,100
L 150,80
L 230,80
L 180,100
L 100,100 z
M 100,260
L 50,280
L 130,280
L 180,260 z
M 100,260
L 50,280
L 130,280
L 180,260 z
M 180,260
L 260,260
L 310,240
L 230,240 z
M 310,240
L 310,320
L 260,340
L 260,260 z
M 50,280
L 50,360
L 130,360
L 130,280 z
M 260,260
L 260,340
L 180,340
L 180,260 z
M 100,180
L 180,180
L 230,160" style="fill:none;stroke:#000000;stroke-width:2.25px;stroke-linejoin:round;stroke-opacity:1" />
</g>
</svg>
